<svg width="135" height="13" viewBox="0 0 135 13" fill="none" xmlns="http://www.w3.org/2000/svg">
    <path d="M6.64292 12.0817H4.24599V2.99679H0.977448V0.901573H9.8947V2.99679H6.64292V12.0817Z" fill="url(#paint0_linear_64_1341)"/>
    <path d="M19.6673 12.0817H11.7558V0.901573H19.6673V2.99679H14.1359V5.3602H19.55V7.45542H14.1359V9.98645H19.6673V12.0817Z" fill="url(#paint1_linear_64_1341)"/>
    <path d="M27.2773 12.2828C25.5788 12.2828 24.1596 11.7464 23.0198 10.6737C21.8912 9.58975 21.3269 8.19852 21.3269 6.5C21.3269 4.80148 21.8912 3.41584 23.0198 2.34308C24.1596 1.25916 25.5788 0.717194 27.2773 0.717194C29.3669 0.717194 30.9258 1.62792 31.9538 3.44936L29.9089 4.45507C29.6631 3.98574 29.2999 3.60022 28.8194 3.2985C28.35 2.98562 27.836 2.82917 27.2773 2.82917C26.2604 2.82917 25.4223 3.17558 24.763 3.8684C24.1037 4.56122 23.7741 5.43842 23.7741 6.5C23.7741 7.56158 24.1037 8.43878 24.763 9.13159C25.4223 9.82441 26.2604 10.1708 27.2773 10.1708C27.836 10.1708 28.35 10.02 28.8194 9.71826C29.2999 9.41654 29.6631 9.02544 29.9089 8.54493L31.9538 9.53388C30.8922 11.3665 29.3334 12.2828 27.2773 12.2828Z" fill="url(#paint2_linear_64_1341)"/>
    <path d="M43.7629 12.0817H41.3659V7.38837H36.086V12.0817H33.7058V0.901573H36.086V5.29315H41.3659V0.901573H43.7629V12.0817Z" fill="url(#paint3_linear_64_1341)"/>
    <path d="M54.8978 12.2828C52.9087 12.2828 51.3331 11.6906 50.171 10.5061L51.4616 8.69579C52.4226 9.7015 53.6071 10.2043 55.0151 10.2043C55.6297 10.2043 56.1046 10.087 56.4399 9.85235C56.7863 9.60651 56.9595 9.31039 56.9595 8.96398C56.9595 8.66227 56.7975 8.41084 56.4734 8.2097C56.1605 8.00856 55.7638 7.86329 55.2833 7.77389C54.814 7.6845 54.2999 7.55599 53.7412 7.38837C53.1825 7.22076 52.6629 7.03079 52.1824 6.81847C51.7131 6.60616 51.3164 6.27092 50.9923 5.81277C50.6794 5.35461 50.523 4.79589 50.523 4.13659C50.523 3.17558 50.9085 2.37102 51.6795 1.7229C52.4506 1.0636 53.4786 0.733955 54.7637 0.733955C56.5404 0.733955 57.9931 1.25357 59.1217 2.2928L57.7976 4.03602C56.9148 3.22028 55.8309 2.81241 54.5458 2.81241C54.0429 2.81241 53.6518 2.91298 53.3725 3.11412C53.0931 3.31527 52.9534 3.58904 52.9534 3.93545C52.9534 4.20364 53.1099 4.43272 53.4228 4.62268C53.7468 4.80147 54.1435 4.93557 54.6128 5.02496C55.0933 5.11436 55.6074 5.24846 56.1549 5.42725C56.7136 5.59486 57.2277 5.79042 57.697 6.01391C58.1775 6.22622 58.5742 6.56705 58.8871 7.03638C59.2111 7.49453 59.3732 8.04767 59.3732 8.69579C59.3732 9.76854 58.9877 10.6346 58.2166 11.2939C57.4568 11.9532 56.3505 12.2828 54.8978 12.2828Z" fill="url(#paint4_linear_64_1341)"/>
    <path d="M66.0764 12.0817H63.6795V2.99679H60.411V0.901573H69.3282V2.99679H66.0764V12.0817Z" fill="url(#paint5_linear_64_1341)"/>
    <path d="M80.5348 12.0817H77.8194L77.1321 10.1876H72.3383L71.6343 12.0817H68.9189L73.2434 0.901573H76.227L80.5348 12.0817ZM76.4784 8.09237L74.7352 3.28174L72.992 8.09237H76.4784Z" fill="url(#paint6_linear_64_1341)"/>
    <path d="M90.9538 12.0817H88.2216L86.0258 8.10913H84.2826V12.0817H81.9024V0.901573H87.1321C88.2831 0.901573 89.1938 1.23681 89.8643 1.90728C90.5459 2.57775 90.8867 3.44377 90.8867 4.50535C90.8867 5.42166 90.6465 6.16476 90.166 6.73466C89.6966 7.30456 89.1211 7.66774 88.4395 7.82418L90.9538 12.0817ZM86.7801 6.01391C87.2718 6.01391 87.674 5.87981 87.9869 5.61163C88.2998 5.33226 88.4563 4.96351 88.4563 4.50535C88.4563 4.0472 88.2998 3.68402 87.9869 3.41584C87.674 3.13647 87.2718 2.99679 86.7801 2.99679H84.2826V6.01391H86.7801Z" fill="url(#paint7_linear_64_1341)"/>
    <path d="M97.8229 12.0817H95.426V2.99679H92.1575V0.901573H101.075V2.99679H97.8229V12.0817Z" fill="url(#paint8_linear_64_1341)"/>
    <path d="M111.736 11.0257C110.886 11.8638 109.635 12.2828 107.981 12.2828C106.327 12.2828 105.07 11.8638 104.21 11.0257C103.36 10.1764 102.936 9.0422 102.936 7.62304V0.901573H105.349V7.53923C105.349 8.34379 105.579 8.98633 106.037 9.46683C106.495 9.93616 107.143 10.1708 107.981 10.1708C108.819 10.1708 109.462 9.93616 109.909 9.46683C110.367 8.98633 110.596 8.34379 110.596 7.53923V0.901573H113.026V7.60628C113.026 9.04779 112.596 10.1876 111.736 11.0257Z" fill="url(#paint9_linear_64_1341)"/>
    <path d="M117.944 12.0817H115.564V0.901573H120.794C121.967 0.901573 122.883 1.24798 123.543 1.9408C124.213 2.62245 124.548 3.4773 124.548 4.50535C124.548 5.52223 124.213 6.37708 123.543 7.0699C122.872 7.76272 121.956 8.10913 120.794 8.10913H117.944V12.0817ZM120.475 6.01391C120.956 6.01391 121.347 5.87981 121.649 5.61163C121.961 5.33226 122.118 4.96351 122.118 4.50535C122.118 4.0472 121.961 3.68402 121.649 3.41584C121.347 3.13647 120.956 2.99679 120.475 2.99679H117.944V6.01391H120.475Z" fill="url(#paint10_linear_64_1341)"/>
    <path d="M130.332 12.2828C128.343 12.2828 126.767 11.6906 125.605 10.5061L126.895 8.69579C127.856 9.7015 129.041 10.2043 130.449 10.2043C131.064 10.2043 131.538 10.087 131.874 9.85235C132.22 9.60651 132.393 9.31039 132.393 8.96398C132.393 8.66227 132.231 8.41084 131.907 8.2097C131.594 8.00856 131.198 7.86329 130.717 7.77389C130.248 7.6845 129.734 7.55599 129.175 7.38837C128.616 7.22076 128.097 7.03079 127.616 6.81847C127.147 6.60616 126.75 6.27092 126.426 5.81277C126.113 5.35461 125.957 4.79589 125.957 4.13659C125.957 3.17558 126.342 2.37102 127.113 1.7229C127.884 1.0636 128.912 0.733955 130.197 0.733955C131.974 0.733955 133.427 1.25357 134.556 2.2928L133.231 4.03602C132.349 3.22028 131.265 2.81241 129.98 2.81241C129.477 2.81241 129.086 2.91298 128.806 3.11412C128.527 3.31527 128.387 3.58904 128.387 3.93545C128.387 4.20364 128.544 4.43272 128.857 4.62268C129.181 4.80147 129.577 4.93557 130.047 5.02496C130.527 5.11436 131.041 5.24846 131.589 5.42725C132.147 5.59486 132.661 5.79042 133.131 6.01391C133.611 6.22622 134.008 6.56705 134.321 7.03638C134.645 7.49453 134.807 8.04767 134.807 8.69579C134.807 9.76854 134.421 10.6346 133.65 11.2939C132.891 11.9532 131.784 12.2828 130.332 12.2828Z" fill="url(#paint11_linear_64_1341)"/>
    <defs>
        <linearGradient id="paint0_linear_64_1341" x1="67.8922" y1="0.717475" x2="67.8922" y2="13.3118" gradientUnits="userSpaceOnUse">
            <stop stop-color="white"/>
            <stop offset="1" stop-color="#A9A9A9"/>
        </linearGradient>
        <linearGradient id="paint1_linear_64_1341" x1="67.8922" y1="0.717475" x2="67.8922" y2="13.3118" gradientUnits="userSpaceOnUse">
            <stop stop-color="white"/>
            <stop offset="1" stop-color="#A9A9A9"/>
        </linearGradient>
        <linearGradient id="paint2_linear_64_1341" x1="67.8922" y1="0.717475" x2="67.8922" y2="13.3118" gradientUnits="userSpaceOnUse">
            <stop stop-color="white"/>
            <stop offset="1" stop-color="#A9A9A9"/>
        </linearGradient>
        <linearGradient id="paint3_linear_64_1341" x1="67.8922" y1="0.717475" x2="67.8922" y2="13.3118" gradientUnits="userSpaceOnUse">
            <stop stop-color="white"/>
            <stop offset="1" stop-color="#A9A9A9"/>
        </linearGradient>
        <linearGradient id="paint4_linear_64_1341" x1="67.8922" y1="0.717475" x2="67.8922" y2="13.3118" gradientUnits="userSpaceOnUse">
            <stop stop-color="white"/>
            <stop offset="1" stop-color="#A9A9A9"/>
        </linearGradient>
        <linearGradient id="paint5_linear_64_1341" x1="67.8922" y1="0.717475" x2="67.8922" y2="13.3118" gradientUnits="userSpaceOnUse">
            <stop stop-color="white"/>
            <stop offset="1" stop-color="#A9A9A9"/>
        </linearGradient>
        <linearGradient id="paint6_linear_64_1341" x1="67.8922" y1="0.717475" x2="67.8922" y2="13.3118" gradientUnits="userSpaceOnUse">
            <stop stop-color="white"/>
            <stop offset="1" stop-color="#A9A9A9"/>
        </linearGradient>
        <linearGradient id="paint7_linear_64_1341" x1="67.8922" y1="0.717475" x2="67.8922" y2="13.3118" gradientUnits="userSpaceOnUse">
            <stop stop-color="white"/>
            <stop offset="1" stop-color="#A9A9A9"/>
        </linearGradient>
        <linearGradient id="paint8_linear_64_1341" x1="67.8922" y1="0.717475" x2="67.8922" y2="13.3118" gradientUnits="userSpaceOnUse">
            <stop stop-color="white"/>
            <stop offset="1" stop-color="#A9A9A9"/>
        </linearGradient>
        <linearGradient id="paint9_linear_64_1341" x1="67.8922" y1="0.717475" x2="67.8922" y2="13.3118" gradientUnits="userSpaceOnUse">
            <stop stop-color="white"/>
            <stop offset="1" stop-color="#A9A9A9"/>
        </linearGradient>
        <linearGradient id="paint10_linear_64_1341" x1="67.8922" y1="0.717475" x2="67.8922" y2="13.3118" gradientUnits="userSpaceOnUse">
            <stop stop-color="white"/>
            <stop offset="1" stop-color="#A9A9A9"/>
        </linearGradient>
        <linearGradient id="paint11_linear_64_1341" x1="67.8922" y1="0.717475" x2="67.8922" y2="13.3118" gradientUnits="userSpaceOnUse">
            <stop stop-color="white"/>
            <stop offset="1" stop-color="#A9A9A9"/>
        </linearGradient>
    </defs>
</svg>
